<svg width="24" height="24" viewBox="0 0 24 24" fill="none" xmlns="http://www.w3.org/2000/svg">
    <path fill-rule="evenodd" clip-rule="evenodd" d="M8.999 10.04a1 1 0 0 1-.946 1.052c-.752.04-1.349.09-1.814.138-.626.066-1.006.45-1.07 1.003C5.08 13.027 5 14.228 5 16c0 1.772.079 2.974.17 3.767.063.554.442.937 1.067 1.003C7.33 20.886 9.139 21 12 21c2.86 0 4.67-.114 5.763-.23.625-.066 1.004-.45 1.067-1.003.091-.793.17-1.995.17-3.767 0-1.772-.079-2.973-.17-3.767-.063-.553-.443-.937-1.068-1.003a35.394 35.394 0 0 0-1.815-.138 1 1 0 0 1 .106-1.997c.783.041 1.414.093 1.918.146 1.485.157 2.669 1.21 2.846 2.765.102.886.183 2.166.183 3.994 0 1.829-.081 3.108-.183 3.994-.177 1.555-1.358 2.608-2.844 2.765-1.181.125-3.062.241-5.973.241-2.91 0-4.792-.116-5.973-.241-1.485-.157-2.667-1.21-2.844-2.765C3.08 19.108 3 17.83 3 16c0-1.828.081-3.107.183-3.994.177-1.555 1.361-2.608 2.846-2.765a37.348 37.348 0 0 1 1.918-.146 1 1 0 0 1 1.052.945z" fill="#777E91"/>
    <path fill-rule="evenodd" clip-rule="evenodd" d="M9.207 6.207a1 1 0 0 1-1.414-1.414l3.5-3.5a1 1 0 0 1 1.414 0l3.5 3.5a1 1 0 0 1-1.414 1.414L13 4.414V14a1 1 0 1 1-2 0V4.414L9.207 6.207z" fill="#777E91"/>
</svg>
