<svg width="20" height="20" viewBox="0 0 20 20" fill="none" xmlns="http://www.w3.org/2000/svg">
    <path fill-rule="evenodd" clip-rule="evenodd" d="M13.333 3.333H6.666a3.333 3.333 0 0 0-3.333 3.333v6.667a3.333 3.333 0 0 0 3.333 3.333h6.667a3.333 3.333 0 0 0 3.333-3.333V6.666a3.333 3.333 0 0 0-3.333-3.333zM6.666 1.666a5 5 0 0 0-5 5v6.667a5 5 0 0 0 5 5h6.667a5 5 0 0 0 5-5V6.666a5 5 0 0 0-5-5H6.666z" fill="#777E91"/>
    <path d="M14.167 6.667a.833.833 0 1 0 0-1.667.833.833 0 0 0 0 1.667z" fill="#777E91"/>
    <path fill-rule="evenodd" clip-rule="evenodd" d="M14.167 10a4.167 4.167 0 1 1-8.333 0 4.167 4.167 0 0 1 8.333 0zm-1.666 0a2.5 2.5 0 1 1-5 0 2.5 2.5 0 0 1 5 0z" fill="#777E91"/>
</svg>
