<svg width="16" height="16" viewBox="0 0 16 16" fill="none" xmlns="http://www.w3.org/2000/svg">
    <path d="M8 1.333A.667.667 0 0 0 7.333 2v2a.667.667 0 1 0 1.333 0V2A.667.667 0 0 0 8 1.333zM8 11.333a.667.667 0 0 0-.667.667v2a.667.667 0 1 0 1.333 0v-2A.667.667 0 0 0 8 11.333zM14 7.333a.667.667 0 0 1 0 1.334h-2a.667.667 0 1 1 0-1.334h2zM4.666 8A.667.667 0 0 0 4 7.333H2a.667.667 0 0 0 0 1.334h2A.667.667 0 0 0 4.666 8zM11.77 3.286a.667.667 0 0 1 .944.943l-1.415 1.414a.667.667 0 1 1-.942-.943l1.414-1.414zM5.643 10.357a.667.667 0 0 0-.943 0L3.286 11.77a.667.667 0 1 0 .942.943L5.643 11.3a.667.667 0 0 0 0-.943zM12.714 11.771a.667.667 0 1 1-.943.943L10.357 11.3a.667.667 0 0 1 .943-.943l1.414 1.414zM5.643 5.643a.667.667 0 0 0 0-.943L4.228 3.286a.667.667 0 1 0-.942.943L4.7 5.643c.26.26.682.26.943 0z" fill="#23262F"/>
</svg>
