<svg width="24" height="24" viewBox="0 0 24 24" fill="none" xmlns="http://www.w3.org/2000/svg">
    <path fill-rule="evenodd" clip-rule="evenodd" d="M3 5a4 4 0 0 1 4-4h8.343a4 4 0 0 1 2.829 1.172l1.656 1.656A4 4 0 0 1 21 6.657V19a4 4 0 0 1-4 4H7a4 4 0 0 1-4-4V5zm16 3v11a2 2 0 0 1-2 2H7a2 2 0 0 1-2-2V5a2 2 0 0 1 2-2h7v2a3 3 0 0 0 3 3h2zm-.11-2a2 2 0 0 0-.476-.757l-1.657-1.657A2 2 0 0 0 16 3.11V5a1 1 0 0 0 1 1h1.89z" fill="#777E91"/>
    <path d="M11.617 9.076a.998.998 0 0 0-.324.217l-3 3a1 1 0 1 0 1.414 1.414L11 12.414V17a1 1 0 1 0 2 0v-4.586l1.293 1.293a1 1 0 0 0 1.414-1.414l-3-3a1 1 0 0 0-1.09-.217z" fill="#777E91"/>
</svg>
