<svg width="20" height="20" viewBox="0 0 20 20" fill="none" xmlns="http://www.w3.org/2000/svg">
    <path fill-rule="evenodd" clip-rule="evenodd" d="M10 3.334a33.41 33.41 0 0 0-4.33.293c-1.084.143-1.901.96-2.044 2.044A33.408 33.408 0 0 0 3.333 10c0 1.627.134 3.126.293 4.33.143 1.083.96 1.9 2.043 2.043 1.204.16 2.703.294 4.33.294 1.627 0 3.127-.135 4.33-.294a2.342 2.342 0 0 0 2.044-2.043c.159-1.204.293-2.703.293-4.33 0-1.627-.134-3.127-.293-4.33a2.343 2.343 0 0 0-2.043-2.044A33.41 33.41 0 0 0 10 3.334zM5.45 1.975a4.009 4.009 0 0 0-3.476 3.477 35.073 35.073 0 0 0-.308 4.549c0 1.715.141 3.29.308 4.548a4.009 4.009 0 0 0 3.477 3.478c1.258.166 2.833.307 4.548.307 1.716 0 3.29-.141 4.549-.307a4.009 4.009 0 0 0 3.477-3.478c.166-1.258.308-2.833.308-4.548 0-1.716-.142-3.29-.308-4.549a4.009 4.009 0 0 0-3.477-3.477 35.074 35.074 0 0 0-4.549-.308c-1.715 0-3.29.142-4.548.308z" fill="#777E91"/>
    <path d="M7.5 9.168a1.667 1.667 0 1 0 0-3.334 1.667 1.667 0 0 0 0 3.334zM15.1 10.59l1.496 1.496c-.052.78-.127 1.504-.21 2.147l-2.464-2.464a.833.833 0 0 0-1.178 0l-1.81 1.81a2.5 2.5 0 0 1-3.536 0l-.143-.143a.833.833 0 0 0-1.178 0l-2.008 2.007a2.392 2.392 0 0 1-.443-1.112c-.03-.228-.06-.466-.087-.714l1.36-1.36a2.5 2.5 0 0 1 3.535 0l.143.143a.833.833 0 0 0 1.178 0l1.81-1.81a2.5 2.5 0 0 1 3.536 0z" fill="#777E91"/>
</svg>
