<svg width="20" height="20" viewBox="0 0 20 20" fill="none" xmlns="http://www.w3.org/2000/svg">
    <path d="M14.167 0c.46 0 .833.373.833.833V2.5a.833.833 0 1 1-1.667 0V.833c0-.46.373-.833.834-.833zM14.167 10c.46 0 .833.373.833.833v5a.833.833 0 1 1-1.667 0v-5c0-.46.373-.833.834-.833zM5.833 3.333c.46 0 .834.373.834.834v6.666a.833.833 0 1 1-1.667 0V4.167c0-.46.373-.834.833-.834zM5.833 15c.46 0 .834.373.834.833v3.334a.833.833 0 0 1-1.667 0v-3.334c0-.46.373-.833.833-.833z" fill="#777E91"/>
    <path fill-rule="evenodd" clip-rule="evenodd" d="M11.667 4.167a2.5 2.5 0 0 1 5 0v5a2.5 2.5 0 1 1-5 0v-5zm3.333 0v5a.833.833 0 0 1-1.666 0v-5a.833.833 0 1 1 1.666 0zM3.333 12.5a2.5 2.5 0 0 1 5 0v1.667a2.5 2.5 0 1 1-5 0V12.5zm3.334 0v1.667a.833.833 0 1 1-1.667 0V12.5a.833.833 0 1 1 1.667 0z" fill="#777E91"/>
</svg>
