<svg width="17" height="16" viewBox="0 0 17 16" fill="none" xmlns="http://www.w3.org/2000/svg">
    <path fill-rule="evenodd" clip-rule="evenodd" d="M8.2 14.667a6.667 6.667 0 1 0 0-13.334 6.667 6.667 0 0 0 0 13.334zm4.214-3.397a5.334 5.334 0 0 0-3.547-8.563v2.71a2.668 2.668 0 0 1 1.63 3.938l1.917 1.915zm-.943.943-1.916-1.916c-.397.235-.86.37-1.355.37-.494 0-.957-.135-1.354-.37L4.93 12.213a5.31 5.31 0 0 0 3.27 1.12 5.31 5.31 0 0 0 3.27-1.12zM5.534 8c0 .494.134.958.369 1.355L3.987 11.27a5.334 5.334 0 0 1 3.547-8.563v2.71c-1.15.296-2 1.34-2 2.583zM8.2 9.333a1.333 1.333 0 1 0 0-2.666 1.333 1.333 0 0 0 0 2.666z" fill="#FCFCFD"/>
</svg>
