<svg width="17" height="16" viewBox="0 0 17 16" fill="none" xmlns="http://www.w3.org/2000/svg">
    <path fill-rule="evenodd" clip-rule="evenodd" d="M8.5 13.334a5.333 5.333 0 1 0 0-10.667 5.333 5.333 0 0 0 0 10.667zm0 1.333a6.667 6.667 0 1 0 0-13.333 6.667 6.667 0 0 0 0 13.333z" fill="#777E91"/>
    <path fill-rule="evenodd" clip-rule="evenodd" d="M9.664 12.118c.492-.985.835-2.439.835-4.118 0-1.679-.343-3.133-.835-4.118-.533-1.064-1.021-1.215-1.165-1.215-.143 0-.632.15-1.164 1.215-.493.985-.836 2.44-.836 4.118 0 1.679.343 3.133.836 4.118.532 1.065 1.021 1.216 1.164 1.216.144 0 .632-.151 1.165-1.216zm-1.165 2.549c1.841 0 3.334-2.985 3.334-6.667S10.34 1.333 8.499 1.333C6.66 1.333 5.166 4.319 5.166 8s1.492 6.667 3.333 6.667z" fill="#777E91"/>
    <path fill-rule="evenodd" clip-rule="evenodd" d="M15.134 8.667a6.737 6.737 0 0 0 0-1.333H1.867a6.746 6.746 0 0 0 0 1.333h13.267z" fill="#777E91"/>
</svg>
