<svg width="20" height="20" viewBox="0 0 20 20" fill="none" xmlns="http://www.w3.org/2000/svg">
    <path fill-rule="evenodd" clip-rule="evenodd" d="M2.651 11.666C1.273 11.67.383 13.24 1.232 14.43c1.216 1.703 3.421 3.07 7.102 3.07 5.704 0 10.283-4.649 9.642-10.14l.94-1.879c.65-1.302-.481-2.784-1.91-2.499l-1.24.249a6.21 6.21 0 0 0-.96-.4c-.567-.185-1.253-.331-1.889-.331-1.14 0-2.126.293-2.908.88-.774.58-1.21 1.344-1.449 2.044-.11.323-.184.647-.23.958a8.421 8.421 0 0 1-1.337-.556C5.99 5.306 5.18 4.65 4.723 4.071c-.768-.968-2.394-.896-2.965.363-.804 1.774-.584 3.877.14 5.577.242.57.557 1.132.942 1.654l-.189.002zm5.683 4.167c-3.22 0-4.884-1.166-5.745-2.372a.081.081 0 0 1 .067-.128c.875-.002 2.673-.044 3.858-.738.062-.036.048-.126-.019-.149-2.764-.929-4.334-4.864-3.219-7.324a.082.082 0 0 1 .14-.016C4.69 6.714 7.476 8.29 9.899 8.332a.085.085 0 0 0 .085-.098c-.098-.634-.471-4.067 2.933-4.067.813 0 2.023.396 2.468.802.02.02.049.028.076.022l1.872-.374a.083.083 0 0 1 .091.119l-1.161 2.322a.086.086 0 0 0-.008.053c.814 4.572-2.931 8.722-7.921 8.722z" fill="#777E91"/>
</svg>
