<svg width="40" height="40" viewBox="0 0 40 40" fill="none" xmlns="http://www.w3.org/2000/svg">
    <path d="M14.167 18.334c-.917 0-1.667.75-1.667 1.666 0 .917.75 1.667 1.667 1.667.916 0 1.666-.75 1.666-1.667 0-.916-.75-1.666-1.666-1.666zm11.666 0c-.916 0-1.666.75-1.666 1.666 0 .917.75 1.667 1.666 1.667.917 0 1.667-.75 1.667-1.667 0-.916-.75-1.666-1.667-1.666zm-5.833 0c-.917 0-1.667.75-1.667 1.666 0 .917.75 1.667 1.667 1.667s1.667-.75 1.667-1.667c0-.916-.75-1.666-1.667-1.666z" fill="#777E91"/>
    <rect x="1" y="1" width="38" height="38" rx="19" stroke="#E6E8EC" stroke-width="2"/>
</svg>
