<svg width="20" height="20" viewBox="0 0 20 20" fill="none" xmlns="http://www.w3.org/2000/svg">
    <g clip-path="url(#1c8ipkcvea)" fill-rule="evenodd" clip-rule="evenodd" fill="#777E91">
        <path d="M10 10.834a5.833 5.833 0 0 0-5.833 5.834v1.666a.833.833 0 1 1-1.667 0v-1.666a7.5 7.5 0 1 1 15 0v1.666a.833.833 0 1 1-1.667 0v-1.666A5.833 5.833 0 0 0 10 10.834z"/>
        <path d="M10 9.168A3.333 3.333 0 1 0 10 2.5a3.333 3.333 0 0 0 0 6.667zm0 1.667a5 5 0 1 0 0-10 5 5 0 0 0 0 10z"/>
    </g>
    <defs>
        <clipPath id="1c8ipkcvea">
            <path fill="#fff" transform="translate(0 .001)" d="M0 0h20v20H0z"/>
        </clipPath>
    </defs>
</svg>
