<svg width="20" height="20" viewBox="0 0 20 20" fill="none" xmlns="http://www.w3.org/2000/svg">
    <path fill-rule="evenodd" clip-rule="evenodd" d="M10 16.666a6.667 6.667 0 1 0 0-13.333 6.667 6.667 0 0 0 0 13.333zm0 1.667a8.333 8.333 0 1 0 0-16.667 8.333 8.333 0 0 0 0 16.667z" fill="#777E91"/>
    <path d="M10 8.334c0-.46.372-.834.833-.834h.833a.833.833 0 1 0 0-1.667h-.833a2.5 2.5 0 0 0-2.5 2.5V10h-.834a.833.833 0 1 0 0 1.667h.834v5a.833.833 0 1 0 1.666 0v-5h1.667a.833.833 0 1 0 0-1.667H9.999V8.334z" fill="#777E91"/>
</svg>
