<svg width="17" height="16" viewBox="0 0 17 16" fill="none" xmlns="http://www.w3.org/2000/svg">
    <path fill-rule="evenodd" clip-rule="evenodd" d="M11.067 8a2.667 2.667 0 1 1-5.334 0 2.667 2.667 0 0 1 5.334 0zM9.733 8a1.333 1.333 0 1 1-2.666 0 1.333 1.333 0 0 1 2.666 0z" fill="#FCFCFD"/>
    <path fill-rule="evenodd" clip-rule="evenodd" d="M15.067 8A6.667 6.667 0 1 1 1.733 8a6.667 6.667 0 0 1 13.334 0zm-1.334 0A5.333 5.333 0 1 1 3.067 8a5.333 5.333 0 0 1 10.666 0z" fill="#FCFCFD"/>
    <path d="M4.434 3.123a.667.667 0 0 1 .843-.422l2 .667a.667.667 0 0 1-.421 1.264l-2-.666a.667.667 0 0 1-.422-.843zM4.47 7.035a.667.667 0 0 1 .895-.298l1.333.667a.667.667 0 0 1-.596 1.192L4.768 7.93a.667.667 0 0 1-.298-.895zM9.538 13.138a.667.667 0 1 0-.943-.943l-1 1a.667.667 0 1 0 .943.943l1-1zM9.595 9.195c.26-.26.682-.26.943 0l.333.334a.667.667 0 1 1-.943.942l-.333-.333a.667.667 0 0 1 0-.943zM5.663 10.965a.667.667 0 1 0-1.193-.597l-.667 1.334a.667.667 0 0 0 1.193.596l.667-1.333zM14.996 7.702c.165.33.031.73-.298.894l-1.334.667a.667.667 0 0 1-.596-1.193l1.334-.666a.667.667 0 0 1 .894.298zM11.032 5.544a.667.667 0 1 0-1.265-.421l-.333 1a.667.667 0 0 0 1.265.421l.333-1z" fill="#FCFCFD"/>
</svg>
