<svg width="20" height="20" viewBox="0 0 20 20" fill="none" xmlns="http://www.w3.org/2000/svg">
    <path fill-rule="evenodd" clip-rule="evenodd" d="M9.19 12.502a.833.833 0 0 1 .865.801 38.61 38.61 0 0 0 .148 2.336c.053.535.376.856.825.91.53.066 1.278.119 2.305.119a19.2 19.2 0 0 0 2.304-.118c.45-.055.773-.377.826-.911.1-1.007.203-2.747.203-5.638 0-2.89-.103-4.63-.203-5.638-.053-.534-.376-.856-.826-.91a19.218 19.218 0 0 0-2.304-.119c-1.027 0-1.774.054-2.305.118-.45.055-.772.377-.825.911a38.61 38.61 0 0 0-.148 2.336.833.833 0 0 1-1.666-.063 40.21 40.21 0 0 1 .155-2.438c.123-1.225.977-2.24 2.282-2.4.608-.074 1.424-.13 2.507-.13 1.083 0 1.899.056 2.507.13 1.305.16 2.16 1.175 2.281 2.4.108 1.079.212 2.877.212 5.803s-.104 4.725-.212 5.803c-.122 1.225-.976 2.24-2.281 2.4a20.85 20.85 0 0 1-2.507.13c-1.083 0-1.9-.055-2.507-.13-1.305-.16-2.16-1.175-2.282-2.4a40.214 40.214 0 0 1-.155-2.438.833.833 0 0 1 .802-.864z" fill="#777E91"/>
    <path fill-rule="evenodd" clip-rule="evenodd" d="M6.005 12.328a.833.833 0 1 1-1.178 1.179L1.91 10.59a.833.833 0 0 1 0-1.178l2.917-2.917a.833.833 0 0 1 1.178 1.179L4.511 9.168H12.5a.833.833 0 1 1 0 1.666H4.511l1.494 1.494z" fill="#777E91"/>
</svg>
